<svg version="1.1" xmlns="http://www.w3.org/2000/svg" xmlns:xlink="http://www.w3.org/1999/xlink" x="0px" y="0px" viewBox="0 0 48 48" style="enable-background:new 0 0 48 48;" xml:space="preserve">
	<g>
		<path
			fill="#FFFFFF"
			d="M35,12.2l0.8,0.8l-4.4,4.3l1.2,1.2c0.2,0.2,0.3,0.5,0.3,0.8s-0.1,0.6-0.3,0.8l-1.1,1.2c1.1,1.9,1.6,4,1.6,6.1
		c0,1.7-0.3,3.3-1,4.9c-0.7,1.6-1.6,2.9-2.7,4s-2.5,2-4,2.7c-1.6,0.7-3.2,1-4.9,1c-1.7,0-3.3-0.3-4.9-1c-1.6-0.6-2.9-1.5-4-2.7
		s-2-2.5-2.7-4c-0.7-1.5-1-3.2-1-4.9c0-1.7,0.3-3.3,1-4.9c0.6-1.6,1.5-2.9,2.7-4s2.5-2,4-2.7c1.6-0.6,3.2-1,4.9-1
		c2.2,0,4.2,0.5,6.1,1.6l1.2-1.1c0.2-0.2,0.5-0.3,0.8-0.3s0.6,0.1,0.8,0.3l1.2,1.2L35,12.2z M17.6,17.9c-0.3-0.1-0.6-0.1-0.9,0
		c-1.3,0.5-2.4,1.3-3.4,2.2c-1,1-1.8,2.1-2.3,3.4c-0.1,0.3-0.1,0.6,0,0.9c0.1,0.3,0.3,0.5,0.6,0.6c0.2,0.1,0.3,0.1,0.4,0.1
		c0.5,0,0.9-0.2,1.1-0.7c0.4-1,1-1.9,1.8-2.7c0.8-0.8,1.7-1.4,2.7-1.8c0.3-0.1,0.5-0.4,0.6-0.6c0.1-0.3,0.1-0.6,0-0.9
		C18.1,18.2,17.9,18,17.6,17.9z M34.8,11.3c-0.2,0-0.3-0.1-0.4-0.2l-1.6-1.6c-0.1-0.1-0.2-0.3-0.2-0.4c0-0.2,0.1-0.3,0.2-0.4
		c0.1-0.1,0.3-0.2,0.4-0.2c0.1,0,0.3,0.1,0.4,0.2l1.6,1.6c0.1,0.1,0.2,0.2,0.2,0.4c0,0.2-0.1,0.3-0.2,0.4
		C35,11.3,34.9,11.3,34.8,11.3z M36.6,8.6v1.7c0,0.2-0.1,0.3-0.2,0.4c-0.1,0.1-0.2,0.2-0.4,0.2c-0.2,0-0.3-0.1-0.4-0.2
		c-0.1-0.1-0.2-0.2-0.2-0.4V8.6c0-0.2,0.1-0.3,0.2-0.4C35.7,8.1,35.8,8,36,8c0.2,0,0.3,0.1,0.4,0.2C36.5,8.3,36.6,8.4,36.6,8.6z
		 M37.7,11.2c-0.1,0.1-0.3,0.2-0.4,0.2c-0.1,0-0.3-0.1-0.4-0.2c-0.1-0.1-0.2-0.2-0.2-0.4c0-0.1,0.1-0.3,0.2-0.4l1.6-1.6
		c0.1-0.1,0.3-0.2,0.4-0.2c0.2,0,0.3,0.1,0.4,0.2c0.1,0.1,0.2,0.2,0.2,0.4c0,0.1-0.1,0.3-0.2,0.4L37.7,11.2z M38.8,15.4
		c-0.1,0-0.3-0.1-0.4-0.2l-1.6-1.6c-0.1-0.1-0.2-0.2-0.2-0.4c0-0.2,0.1-0.3,0.2-0.4c0.1-0.1,0.2-0.2,0.4-0.2c0.1,0,0.3,0.1,0.4,0.2
		l1.6,1.6c0.1,0.1,0.2,0.3,0.2,0.4c0,0.1-0.1,0.3-0.2,0.4C39.1,15.4,39,15.4,38.8,15.4z M40,12c0,0.2-0.1,0.3-0.2,0.4
		c-0.1,0.1-0.2,0.2-0.4,0.2h-1.7c-0.2,0-0.3-0.1-0.4-0.2c-0.1-0.1-0.2-0.2-0.2-0.4c0-0.2,0.1-0.3,0.2-0.4c0.1-0.1,0.2-0.2,0.4-0.2
		h1.7c0.2,0,0.3,0.1,0.4,0.2C39.9,11.7,40,11.8,40,12z"/>
	</g>
</svg>
