<svg version="1.1" xmlns="http://www.w3.org/2000/svg" xmlns:xlink="http://www.w3.org/1999/xlink" x="0px" y="0px" viewBox="0 0 48 48" style="enable-background:new 0 0 48 48;" xml:space="preserve">
	<g>
		<path
			fill="#FFFFFF"
			d="M12,14.5v22.6c0,0.1-0.1,0.3-0.2,0.4c-0.1,0.1-0.3,0.2-0.4,0.2h-1.2c-0.1,0-0.3-0.1-0.4-0.2
		c-0.1-0.1-0.2-0.3-0.2-0.4V14.5c-0.8-0.4-1.1-1.1-1.1-2c0-0.6,0.2-1.2,0.7-1.6c0.4-0.5,1-0.7,1.6-0.7c0.6,0,1.2,0.2,1.6,0.7
		c0.5,0.4,0.7,1,0.7,1.6C13.1,13.4,12.8,14.1,12,14.5z M39.4,27.3c0,0.3-0.1,0.5-0.2,0.7c-0.1,0.2-0.4,0.3-0.7,0.5
		c-2.6,1.4-4.8,2.1-6.6,2.1c-0.7,0-1.4-0.1-2.2-0.4c-0.8-0.2-1.4-0.5-1.9-0.8c-0.5-0.3-1.2-0.6-2.1-0.8c-0.8-0.3-1.7-0.4-2.6-0.4
		c-2.3,0-5,0.9-8.3,2.6c-0.2,0.1-0.4,0.2-0.6,0.2c-0.3,0-0.6-0.1-0.8-0.3c-0.2-0.2-0.3-0.5-0.3-0.8V16.5c0-0.4,0.2-0.7,0.6-1
		c0.2-0.2,0.7-0.4,1.4-0.8c2.8-1.4,5.3-2.2,7.5-2.2c1.3,0,2.5,0.2,3.6,0.5c1.1,0.4,2.4,0.9,3.9,1.6c0.4,0.2,1,0.3,1.6,0.3
		c0.6,0,1.3-0.1,2.1-0.4s1.4-0.5,2-0.8s1.1-0.6,1.6-0.8c0.5-0.2,0.8-0.4,1-0.4c0.3,0,0.6,0.1,0.8,0.3c0.2,0.2,0.3,0.5,0.3,0.8V27.3z
		"/>
	</g>
</svg>
