<svg width="298px" height="70px" viewBox="0 0 298 70" version="1.1" xmlns="http://www.w3.org/2000/svg" xmlns:xlink="http://www.w3.org/1999/xlink">
    <!-- Generator: Sketch 46.1 (44463) - http://www.bohemiancoding.com/sketch -->
    <title>Horizontal - white</title>
    <desc>Created with Sketch.</desc>
    <defs></defs>
    <g id="Page-1" stroke="none" stroke-width="1" fill="none" fill-rule="evenodd">
        <g id="04_Logos" transform="translate(-417.000000, -624.000000)" fill="#FFFFFF">
            <g id="Horizontal---white" transform="translate(417.000000, 624.000000)">
                <path d="M296.16028,14 C289.981596,8.94059406 284.011182,15.039604 284.011182,15.039604 L284.98311,11.8514851 L276.652301,11.7821782 L268.946302,29.5247525 C257.144321,44.2871287 261.101456,29.6633663 261.101456,29.6633663 L273.250553,0.762376238 L263.808969,0.762376238 C254.089691,28.4158416 251.382178,29.3861386 251.382178,29.3861386 C236.733838,44.2871287 241.593477,30.009901 241.593477,30.009901 L254.089691,0.623762376 L245.620035,0.623762376 C228.611299,36.6633663 231.665929,35.970297 231.943623,38.2574257 C225.834362,47.8910891 217.434129,49.4851485 217.434129,49.4851485 L228.333605,23.5643564 L218.961444,23.5643564 L212.713337,38.5346535 C203.61887,54.2673267 204.660221,44.009901 204.660221,44.009901 L206.25696,38.6732673 L212.57449,23.4950495 L203.896564,23.4950495 L197.579033,39.3663366 C186.12417,55.0990099 187.790332,45.049505 187.790332,45.049505 C188.276296,42.2772277 195.843448,23.5643564 195.843448,23.5643564 L187.096098,23.7029703 L185.568783,27.3762376 C185.152242,26.2673267 184.041468,25.019802 183.06954,24.4653465 C170.781596,17.4653465 164.811182,37.7029703 164.811182,37.7029703 C161.201165,43.5247525 156.341526,43.3861386 156.341526,43.3861386 C157.729994,42.5544554 169.462551,12.3366337 169.462551,12.3366337 L160.854048,12.3366337 L156.758066,22.3861386 C150.579383,40.1980198 145.580897,44.1485149 145.580897,44.1485149 C139.74933,49.8316832 141.068375,43.5940594 141.068375,43.5940594 C141.207222,42.3465347 142.526267,39.0891089 142.526267,39.0891089 L153.286896,12.4752475 L144.608969,12.4752475 C133.154106,41.7227723 130.724287,43.039604 130.724287,43.039604 C123.643098,50.6633663 125.170414,43.3861386 125.031567,43.039604 C124.89272,42.6930693 126.697729,38.4653465 126.697729,38.4653465 L137.458358,12.0594059 L128.780431,12.0594059 L121.213279,30.0792079 C109.827839,53.5742574 121.560396,53.7128713 121.560396,53.7128713 C128.502737,54.5445545 134.542574,48.2376238 134.542574,48.2376238 C135.167385,54.8217822 142.734537,53.7128713 142.734537,53.7128713 C148.218987,53.0891089 152.939779,47.8217822 152.939779,47.8217822 C158.215958,49 163.353291,45.3267327 163.353291,45.3267327 C162.589633,51.980198 167.935236,53.5049505 167.935236,53.5049505 C173.697379,54.6138614 178.348748,49.1386139 178.348748,49.1386139 C184.388585,59.8118812 193.830169,48.1683168 193.830169,48.1683168 L195.010367,47.960396 C200.56424,57.8019802 208.617356,49.7623762 208.617356,49.7623762 L207.576005,52.7425743 C200.77251,55.3069307 196.398835,57.8712871 195.426907,60.1584158 C192.23343,67.7821782 198.203844,69.2376238 198.203844,69.2376238 C210.075248,73.7425743 215.767967,55.029703 215.767967,55.029703 C228.125335,51.7029703 234.095748,42.2079208 234.095748,42.2079208 C241.6629,48.4455446 251.451602,36.1089109 251.451602,36.1089109 C252.701223,47.4752475 264.711474,40.4059406 264.711474,40.4059406 L259.782411,52.8811881 L268.668608,52.8811881 L274.569598,39.0891089 C285.607921,48.3069307 292.480839,35 292.480839,35 C300.533955,19.2673267 296.229703,14.0693069 296.16028,14 L296.16028,14 L296.16028,14 Z M179.459522,42.4851485 C179.459522,42.4851485 176.266045,46.5742574 174.11392,46.2970297 C174.11392,46.2970297 169.115434,46.990099 174.669307,36.3861386 C174.669307,36.3861386 178.973559,27.4455446 182.514153,31.3960396 C182.86127,31.8118812 183.06954,32.7128713 183.06954,33.4059406 L179.459522,42.4851485 L179.459522,42.4851485 Z M199.661736,64.1089109 C199.661736,64.1089109 195.774024,61.7524752 205.076762,58.1485149 C205.076762,58.1485149 202.508096,65.2871287 199.661736,64.1089109 L199.661736,64.1089109 Z M288.24601,25.1584158 C288.24601,25.1584158 285.19138,36.7326733 280.123471,37.4950495 C280.123471,37.4950495 278.387886,37.4950495 276.929994,33.4752475 L280.678858,23.7029703 C280.678858,23.7029703 291.925451,12.3366337 288.24601,25.1584158 L288.24601,25.1584158 Z" id="Shape"></path>
                <g id="plane">
                    <polygon id="Shape" opacity="0.800000012" points="131.973908 0.207920792 0.208270239 27.9306931 29.1578334 44.4950495"></polygon>
                    <polygon id="Shape" opacity="0.900000036" points="43.7143687 53.097337 31.7447547 57.373085 41.2375073 51.7722772 131.973908 0.207920792 72.2003494 68.3366337"></polygon>
                    <polygon id="Shape" opacity="0.699999988" points="29.1578334 44.4950495 31.7264997 57.3861386 41.2375073 51.7722772 131.973908 0.207920792"></polygon>
                </g>
            </g>
        </g>
    </g>
</svg>
